<svg width="500" height="500" viewBox="0 0 500 500" fill="none" xmlns="http://www.w3.org/2000/svg">
<path d="M242.136 1.10422C241.382 1.18539 239.041 1.46949 236.977 1.71301C226.659 2.93058 215.429 6.38037 206.063 11.2101C204.515 11.9812 191.142 19.8954 176.34 28.7431C161.577 37.5908 134.83 53.5816 116.932 64.2962C99.0347 75.0109 81.2959 85.6443 77.5656 87.8765C73.7956 90.1493 68.8747 93.3556 66.6524 95.0196C61.5728 98.7941 52.4454 108.088 48.3977 113.527C38.1194 127.326 31.6112 142.708 28.7936 159.551C28.119 163.528 28.0396 169.17 27.9206 246.81C27.8412 303.833 27.9206 331.513 28.2381 335.206C29.2302 347.991 31.8493 357.975 37.1273 369.176C44.9054 385.654 56.1361 397.911 71.851 407.043C74.3908 408.504 105.702 427.214 141.417 448.562C177.133 469.951 207.65 488.093 209.198 488.904C218.445 493.693 228.842 496.9 240.152 498.483C244.993 499.172 258.288 499.172 263.169 498.483C273.487 497.062 283.606 494.059 291.94 489.96C296.94 487.524 430.16 407.976 434.605 404.77C454.447 390.524 467.463 367.999 471.392 341.172C472.066 336.627 472.106 330.904 472.106 250.057C472.106 154.884 472.265 160.89 469.646 149.607C464.328 126.555 451.113 106.505 433.255 94.4514C428.057 90.9205 293.964 12.7117 288.765 10.1548C280.669 6.17744 271.225 3.29585 261.383 1.83476C257.494 1.26656 244.874 0.779534 242.136 1.10422ZM262.573 35.9674C264.558 36.3326 267.574 36.982 269.32 37.4285C277.495 39.5795 277.177 39.3766 345.831 81.464C381.666 103.421 412.461 122.293 414.207 123.47C426.191 131.182 436.39 146.848 439.644 162.392C440.319 165.639 440.359 170.266 440.359 249.245V332.649L439.446 336.911C436.351 351.319 429.327 363.9 419.604 372.464C415.397 376.157 415.715 375.954 384.801 394.421C354.998 412.238 344.005 418.772 306.424 441.297C277.098 458.871 276.463 459.236 271.383 461.062C256.065 466.582 240.469 466.542 225.35 460.941C223.286 460.17 220.746 459.114 219.675 458.546C218.603 457.978 189.713 440.323 155.426 419.3C121.179 398.276 91.6931 380.216 89.947 379.242C77.5259 372.058 67.6048 359.476 62.803 344.825C62.1681 342.796 61.2157 339.265 60.6998 336.911L59.787 332.649V249.245C59.787 170.266 59.8267 165.639 60.5013 162.392C63.7555 146.848 73.9543 131.182 85.9389 123.47C87.685 122.293 118.44 103.421 154.235 81.5046C201.976 52.2423 220.31 41.2029 223.048 40.0665C227.453 38.2808 234.318 36.4138 238.763 35.805C240.509 35.5615 242.493 35.2774 243.128 35.1962C245.866 34.7904 259.161 35.318 262.573 35.9674Z" fill="white"/>
<path d="M242.731 74.3209C235.548 75.0921 228.048 76.9996 222.294 79.4753C217.691 81.5046 123.639 136.011 119.909 138.812C104.63 150.419 93.7567 169.576 91.7328 188.448C91.1773 193.846 91.1773 306.268 91.7328 311.666C93.7567 330.539 104.63 349.695 119.909 361.303C122.964 363.616 214.198 418.407 219.476 421.126C237.731 430.42 259.161 430.948 275.59 422.506C280.154 420.152 377.777 359.923 380.952 357.488C393.809 347.707 402.857 334.435 406.468 320.189C408.651 311.504 408.532 314.954 408.691 251.884C408.81 210.04 408.73 192.141 408.413 188.854C406.508 169.738 395.754 150.622 380.237 138.812C376.428 135.93 282.098 81.2611 277.693 79.3942C269.955 76.1067 261.502 74.4021 252.057 74.118C248.684 74.0368 244.477 74.118 242.731 74.3209ZM313.568 250.057V314.994H186.578V185.12H313.568V250.057Z" fill="white"/>
</svg>
