<svg xmlns="http://www.w3.org/2000/svg" width="1600" height="1745.333" class="w-4 h-4 flex-shrink-0" style="color:var(--robux-color)" viewBox="0 0 1200 1309"><g fill="currentColor"><path d="M580 40.6c-1.9.2-7.8.9-13 1.5-26 3-54.3 11.5-77.9 23.4-3.9 1.9-37.6 21.4-74.9 43.2-37.2 21.8-104.6 61.2-149.7 87.6s-89.8 52.6-99.2 58.1c-9.5 5.6-21.9 13.5-27.5 17.6-12.8 9.3-35.8 32.2-46 45.6-25.9 34-42.3 71.9-49.4 113.4-1.7 9.8-1.9 23.7-2.2 215-.2 140.5 0 208.7.8 217.8 2.5 31.5 9.1 56.1 22.4 83.7 19.6 40.6 47.9 70.8 87.5 93.3 6.4 3.6 85.3 49.7 175.3 102.3 90 52.7 166.9 97.4 170.8 99.4 23.3 11.8 49.5 19.7 78 23.6 12.2 1.7 45.7 1.7 58 0 26-3.5 51.5-10.9 72.5-21 12.6-6 348.3-202 359.5-209.9 50-35.1 82.8-90.6 92.7-156.7 1.7-11.2 1.8-25.3 1.8-224.5 0-234.5.4-219.7-6.2-247.5-13.4-56.8-46.7-106.2-91.7-135.9-13.1-8.7-351-201.4-364.1-207.7-20.4-9.8-44.2-16.9-69-20.5-9.8-1.4-41.6-2.6-48.5-1.8m51.5 85.9c5 .9 12.6 2.5 17 3.6 20.6 5.3 19.8 4.8 192.8 108.5 90.3 54.1 167.9 100.6 172.3 103.5 30.2 19 55.9 57.6 64.1 95.9 1.7 8 1.8 19.4 1.8 214v205.5l-2.3 10.5c-7.8 35.5-25.5 66.5-50 87.6-10.6 9.1-9.8 8.6-87.7 54.1-75.1 43.9-102.8 60-197.5 115.5-73.9 43.3-75.5 44.2-88.3 48.7-38.6 13.6-77.9 13.5-116-.3-5.2-1.9-11.6-4.5-14.3-5.9s-75.5-44.9-161.9-96.7c-86.3-51.8-160.6-96.3-165-98.7-31.3-17.7-56.3-48.7-68.4-84.8-1.6-5-4-13.7-5.3-19.5l-2.3-10.5V652c0-194.6.1-206 1.8-214 8.2-38.3 33.9-76.9 64.1-95.9 4.4-2.9 81.9-49.4 172.1-103.4 120.3-72.1 166.5-99.3 173.4-102.1 11.1-4.4 28.4-9 39.6-10.5 4.4-.6 9.4-1.3 11-1.5 6.9-1 40.4.3 49 1.9"/><path d="M581.5 221c-18.1 1.9-37 6.6-51.5 12.7-11.6 5-248.6 139.3-258 146.2-38.5 28.6-65.9 75.8-71 122.3-1.4 13.3-1.4 290.3 0 303.6 5.1 46.5 32.5 93.7 71 122.3 7.7 5.7 237.6 140.7 250.9 147.4 46 22.9 100 24.2 141.4 3.4 11.5-5.8 257.5-154.2 265.5-160.2 32.4-24.1 55.2-56.8 64.3-91.9 5.5-21.4 5.2-12.9 5.6-168.3.3-103.1.1-147.2-.7-155.3-4.8-47.1-31.9-94.2-71-123.3-9.6-7.1-247.3-141.8-258.4-146.4-19.5-8.1-40.8-12.3-64.6-13-8.5-.2-19.1 0-23.5.5M760 654v160H440V494h320z"/></g></svg>